<?xml version="1.0" ?><!DOCTYPE svg  PUBLIC '-//W3C//DTD SVG 1.1//EN'  'http://www.w3.org/Graphics/SVG/1.1/DTD/svg11.dtd'><svg enable-background="new 0 0 512 512" id="Layer_1" version="1.1" viewBox="0 0 512 512" xml:space="preserve" xmlns="http://www.w3.org/2000/svg" xmlns:xlink="http://www.w3.org/1999/xlink"><g><path d="M512,256c0,141.4-114.6,256-256,256C114.6,512,0,397.4,0,256C0,114.6,114.6,0,256,0   C397.4,0,512,114.6,512,256z" fill="#2EBD59"/><path d="M364,355.2c-4.1,6.7-12.9,8.8-19.6,4.7c-53.7-32.8-121.2-40.2-200.7-22c-7.7,1.8-15.3-3-17.1-10.7   c-1.8-7.7,3-15.3,10.7-17.1c87.1-19.9,161.7-11.3,222,25.5C366,339.7,368.1,348.5,364,355.2 M392,293c-5.2,8.4-16.1,11-24.5,5.9   c-61.4-37.8-155.1-48.7-227.7-26.6c-9.4,2.9-19.4-2.5-22.2-11.9c-2.8-9.4,2.5-19.4,11.9-22.2c83-25.2,186.2-13,256.7,30.4   C394.5,273.6,397.2,284.6,392,293 M394.4,228.2c-73.7-43.7-195.2-47.8-265.5-26.4c-11.3,3.4-23.2-3-26.7-14.2   c-3.4-11.3,2.9-23.2,14.2-26.7c80.7-24.5,214.9-19.8,299.7,30.6c10.2,6,13.5,19.1,7.5,29.3C417.7,230.9,404.5,234.2,394.4,228.2" fill="#FFFFFF"/></g></svg>