<?xml version="1.0" ?><!DOCTYPE svg  PUBLIC '-//W3C//DTD SVG 1.1//EN'  'http://www.w3.org/Graphics/SVG/1.1/DTD/svg11.dtd'><svg enable-background="new 0 0 512 512" id="Layer_1" version="1.1" viewBox="0 0 512 512" xml:space="preserve" xmlns="http://www.w3.org/2000/svg" xmlns:xlink="http://www.w3.org/1999/xlink"><circle cx="256" cy="256" fill="#CC0000" id="ellipse" r="256"/><path d="M229,116.4c18-0.5,36.1-0.5,54.1,0c46.5,1.2,93,6.1,136.9,21l-9.8,14.3  c-37.1-13-81.1-19.3-127.6-20.7c-17.6-0.5-35.5-0.5-53.1,0c-46.5,1.4-90.5,7.7-127.6,20.7l-9.8-14.3  C135.9,122.5,182.4,117.6,229,116.4z M306.1,167.6L256,436l-50.1-268.4c-26.7,0-54.6,4.1-55.3,23.8c-12.6-3.2-35.5-17.4-40.8-27.4  c38.2-15.5,101.3-17.5,128.7-16.4L256,170l17.5-22.5c27.4-1,90.4,1,128.7,16.4c-5.3,10-28.2,24.3-40.8,27.4  C360.6,171.7,332.8,167.6,306.1,167.6z" fill="#FFFFFF" id="logo"/></svg>